<svg width="668" height="400" viewBox="0 0 668 400" fill="none" xmlns="http://www.w3.org/2000/svg">
<path d="M54.4303 393.01L57.5706 390.237L267.334 180.5L377.097 290.237C389.113 302.253 408.021 303.177 421.097 293.01L424.237 290.237L567.334 147.167L610.43 190.237C630.516 210.323 664.24 197.589 667.134 170.454L667.334 166.667L667.275 31.3539L666.976 28.435L666.143 24.472L665.337 21.9445L664.211 19.2259L662.467 15.9764L660.236 12.7659L657.57 9.76197C656.391 8.5833 655.144 7.51042 653.844 6.54448L650.136 4.1557L646.378 2.37419L642.867 1.19484L638.949 0.36726L636.975 0.132211L634 0H500.667C472.261 0 457.419 32.8504 474.559 54.0842L477.097 56.9036L520.167 100L400.667 219.5L290.904 109.763C278.888 97.747 259.98 96.8226 246.904 106.99L243.763 109.763L10.4301 343.096C-2.58738 356.114 -2.58738 377.219 10.4301 390.237C22.4462 402.253 41.3539 403.177 54.4303 393.01Z" fill="white"/>
</svg>
